<svg width="664" height="228" viewBox="0 0 664 228" fill="none" xmlns="http://www.w3.org/2000/svg">
<path d="M169.556 132.384C179.749 100.294 161.945 66.0609 129.836 55.8742C123.711 53.9505 117.5 52.9886 111.419 52.9886C85.5656 52.9886 61.5495 69.5585 53.3254 95.5283C43.1328 127.619 60.9371 161.852 93.046 172.038C99.1704 173.962 105.382 174.924 111.463 174.924C137.316 174.968 161.332 158.354 169.556 132.384C169.556 132.428 169.556 132.428 169.556 132.384ZM66.1427 122.678C62.2932 118.263 59.6247 113.76 58.2249 109.3C57.4374 106.808 57.0875 104.36 57.175 101.999C60.6746 104.972 66.4052 108.426 73.7107 111.967C72.5295 117.519 71.8296 122.984 71.6546 128.187C69.6423 126.438 67.8051 124.602 66.1427 122.678ZM122.837 59.7653C123.055 59.7653 123.23 59.7653 123.449 59.7653C120.474 63.2629 117.018 68.9902 113.475 76.2914C107.919 75.111 102.451 74.4115 97.2456 74.2366C98.033 73.3622 98.8204 72.4878 99.6516 71.6571C107.176 63.9624 115.4 59.7653 122.837 59.7653ZM156.739 105.278C160.589 109.694 163.257 114.197 164.657 118.656C165.444 121.148 165.794 123.597 165.707 125.957C162.207 122.984 156.477 119.531 149.171 115.989C150.352 110.437 151.052 104.972 151.227 99.7691C153.239 101.562 155.077 103.398 156.739 105.278ZM95.7582 149.785C95.8457 149.173 95.9332 148.517 96.0645 147.861C97.4206 148.342 98.8204 148.823 100.264 149.304C101.664 149.741 103.107 150.178 104.507 150.528C104.201 151.096 103.939 151.709 103.632 152.277C99.5641 160.234 96.6769 164.038 95.0146 165.83C94.6646 163.382 94.4896 158.616 95.7582 149.785ZM101.751 144.582C100.133 144.058 98.5142 143.489 96.9394 142.921C98.0767 136.8 99.6516 130.111 101.576 123.159C103.632 123.859 105.776 124.558 107.919 125.258C110.063 125.957 112.206 126.569 114.306 127.225C111.856 134.002 109.276 140.341 106.695 146.025C104.988 145.588 103.37 145.107 101.751 144.582ZM109.363 120.58C107.176 119.88 105.032 119.181 102.889 118.438C103.501 116.252 104.201 114.109 104.901 111.923C105.601 109.737 106.301 107.595 107.044 105.453C109.188 106.065 111.375 106.764 113.563 107.42C115.75 108.12 117.893 108.819 120.037 109.562C119.424 111.748 118.724 113.891 118.025 116.077C117.325 118.263 116.625 120.405 115.881 122.547C113.738 121.935 111.55 121.279 109.363 120.58ZM74.8918 107.07C74.3231 106.764 73.7107 106.502 73.142 106.196C65.1803 102.13 61.3745 99.2445 59.581 97.5831C60.5433 97.4519 61.8995 97.3208 63.693 97.3208C67.4988 97.3208 72.2233 97.758 77.5602 98.6324C77.079 99.9877 76.5978 101.387 76.1166 102.83C75.6792 104.229 75.2855 105.628 74.8918 107.07ZM80.8411 104.316C81.3661 102.698 81.9348 101.081 82.5034 99.5068C88.584 100.643 95.277 102.217 102.276 104.141C101.576 106.196 100.876 108.338 100.177 110.481C99.4766 112.623 98.8642 114.765 98.208 116.864C91.4275 114.415 85.0844 111.836 79.3975 109.256C79.835 107.551 80.3162 105.934 80.8411 104.316ZM127.124 78.2151C127.036 78.8272 126.949 79.483 126.817 80.1388C125.461 79.6579 124.061 79.177 122.618 78.696C121.218 78.2588 119.774 77.8216 118.375 77.4719C118.681 76.9035 118.943 76.2914 119.249 75.7231C123.318 67.766 126.205 63.9624 127.867 62.1699C128.217 64.6182 128.392 69.3837 127.124 78.2151ZM121.13 83.3741C122.749 83.8987 124.368 84.4671 125.942 85.0354C124.805 91.1562 123.23 97.8454 121.305 104.797C119.249 104.097 117.106 103.398 114.962 102.698C112.819 101.999 110.675 101.387 108.576 100.731C111.025 93.9543 113.606 87.6149 116.187 81.9313C117.893 82.4122 119.512 82.8932 121.13 83.3741ZM122.705 117.563C123.405 115.421 124.018 113.279 124.674 111.18C131.454 113.628 137.797 116.208 143.484 118.787C143.047 120.405 142.609 122.066 142.084 123.684C141.559 125.302 140.991 126.919 140.422 128.493C134.342 127.356 127.648 125.783 120.649 123.859C121.349 121.848 122.049 119.705 122.705 117.563ZM146.765 125.17C147.203 123.771 147.64 122.329 147.99 120.93C148.559 121.236 149.171 121.498 149.74 121.804C157.701 125.87 161.507 128.755 163.301 130.417C162.338 130.548 160.982 130.679 159.189 130.679C155.383 130.679 150.658 130.242 145.322 129.368C145.847 128.012 146.284 126.613 146.765 125.17ZM146.24 101.43C146.021 105.54 145.453 109.737 144.622 113.891C139.066 111.399 132.81 108.863 126.03 106.415C127.955 99.5068 129.486 92.905 130.623 86.9154C134.516 88.6205 138.279 90.5879 141.778 92.7739C143.353 93.7794 144.884 94.785 146.371 95.878C146.371 97.7143 146.328 99.5505 146.24 101.43ZM131.498 81.975C132.81 73.9743 133.292 67.3288 132.898 62.7382C134.866 64.0061 136.66 65.7112 138.279 67.8097C141.122 71.5259 143.266 76.2914 144.665 81.975C145.278 84.4234 145.715 87.0028 145.978 89.6698C141.603 86.7842 136.747 84.2048 131.498 81.975ZM94.5334 79.0895C99.9578 79.0895 105.645 79.7016 111.332 80.8383C108.838 86.3908 106.301 92.6427 103.895 99.4193C96.9831 97.4957 90.3776 95.9655 84.4282 94.8287C86.9217 89.1014 89.9839 83.8113 93.396 79.1332C93.746 79.0895 94.1397 79.0895 94.5334 79.0895ZM79.3975 93.9543C73.2732 92.9488 67.8925 92.4241 63.693 92.4241C62.4244 92.4241 61.2433 92.4678 60.1934 92.5553C62.3806 89.2326 65.749 86.3908 70.1236 84.161C74.8918 81.7564 80.6661 80.1825 87.1404 79.483C84.2533 83.855 81.6285 88.7079 79.3975 93.9543ZM76.6416 126.569C76.8603 122.46 77.429 118.263 78.2602 114.109C83.8158 116.601 90.0714 119.137 96.8519 121.585C94.9271 128.493 93.396 135.095 92.2586 141.085C88.3653 139.379 84.6032 137.412 81.1036 135.226C79.5288 134.22 77.9977 133.215 76.5103 132.122C76.5103 130.286 76.5541 128.449 76.6416 126.569ZM91.3837 146.025C90.0714 154.026 89.5902 160.671 89.9839 165.262C88.0153 163.994 86.2218 162.289 84.6032 160.19C81.7598 156.474 79.6163 151.709 78.2164 146.025C77.604 143.577 77.1665 140.997 76.9041 138.33C81.2786 141.172 86.1343 143.795 91.3837 146.025ZM100.089 168.235C99.8703 168.235 99.6953 168.235 99.4766 168.235C102.451 164.737 105.907 159.01 109.45 151.709C115.006 152.889 120.474 153.588 125.68 153.763C124.893 154.638 124.105 155.512 123.274 156.343C115.706 164.038 107.482 168.235 100.089 168.235ZM128.348 148.867C122.924 148.867 117.237 148.255 111.55 147.118C114.044 141.565 116.581 135.313 118.987 128.537C125.899 130.461 132.504 131.991 138.454 133.127C135.96 138.855 132.898 144.145 129.486 148.823C129.136 148.867 128.742 148.867 128.348 148.867ZM143.484 134.046C149.609 135.051 154.989 135.576 159.189 135.576C160.457 135.576 161.639 135.532 162.688 135.445C160.501 138.767 157.133 141.609 152.758 143.839C147.99 146.244 142.216 147.817 135.741 148.517C138.672 144.145 141.253 139.292 143.484 134.046ZM161.201 88.1833C164.569 94.6539 166.582 101.562 167.282 108.775C167.413 110 167.457 111.267 167.5 112.492C164.263 105.759 158.62 99.157 151.183 93.386C150.746 83.9862 148.602 75.5919 144.928 69.0339C145.934 69.7771 146.896 70.5641 147.815 71.3511C153.371 76.0728 157.833 81.7564 161.201 88.1833ZM78.6539 68.553C83.3783 65.1428 88.584 62.5196 94.1397 60.6834C99.3016 59.022 104.595 58.1039 109.975 57.929C103.239 61.1643 96.6331 66.8042 90.8588 74.2366C81.4536 74.6738 73.0545 76.8598 66.4927 80.4886C69.8611 75.9854 73.9294 71.9631 78.6539 68.553ZM61.6807 139.773C58.3123 133.302 56.3001 126.395 55.6001 119.181C55.4689 117.957 55.4252 116.689 55.3814 115.465C58.6186 122.197 64.2617 128.799 71.6984 134.57C72.1358 143.97 74.2793 152.364 77.9539 158.922C76.9478 158.179 75.9854 157.392 75.0668 156.605C69.5549 151.927 65.0491 146.243 61.6807 139.773ZM144.272 159.403C139.547 162.813 134.342 165.437 128.786 167.273C123.624 168.934 118.331 169.852 112.95 170.027C119.687 166.792 126.292 161.152 132.067 153.72C141.472 153.282 149.871 151.096 156.433 147.468C153.064 152.015 148.952 156.037 144.272 159.403Z" fill="#2F9E41"/>
<path d="M117.018 9.0937C117.193 6.9077 119.206 5.33378 121.349 5.72726C133.073 7.69466 144.403 11.542 154.727 17.007C166.232 23.0841 176.556 31.216 185.042 40.7033C193.529 50.2343 200.266 61.1643 204.815 72.8375C208.927 83.3303 211.289 94.4352 211.858 105.496C211.946 107.507 210.414 109.213 208.446 109.344C206.521 109.475 204.859 108.163 204.509 106.283C202.715 96.1403 199.347 86.4344 194.535 77.603C189.198 67.766 182.199 59.022 173.975 51.8519C165.751 44.6818 156.345 39.0419 146.371 35.282C137.622 31.9593 128.436 30.0793 119.293 29.6421C117.237 29.5547 115.662 27.7184 115.794 25.6636L117.018 9.0937Z" fill="#D282A6"/>
<path d="M208.621 38.7359C219.324 38.7359 228 30.0646 228 19.368C228 8.67134 219.324 0 208.621 0C197.918 0 189.242 8.67134 189.242 19.368C189.242 30.0646 197.918 38.7359 208.621 38.7359Z" fill="#D282A6"/>
<path d="M111.025 217.201C110.85 219.387 108.838 220.961 106.695 220.568C94.9709 218.6 83.6409 214.753 73.317 209.288C61.812 203.211 51.4881 195.079 43.0016 185.591C34.515 176.061 27.7782 165.131 23.2287 153.457C19.1167 142.964 16.7544 131.86 16.1858 120.798C16.0983 118.787 17.6294 117.082 19.5979 116.951C21.5227 116.82 23.185 118.131 23.535 120.011C25.3285 130.154 28.6969 139.86 33.5089 148.692C38.8458 158.529 45.845 167.273 54.0691 174.443C62.2932 181.613 71.6984 187.253 81.6723 191.013C90.4214 194.335 99.6079 196.215 108.751 196.653C110.807 196.74 112.381 198.576 112.25 200.631L111.025 217.201Z" fill="#466EC2"/>
<path d="M19.3791 226.295C30.0819 226.295 38.7583 217.624 38.7583 206.927C38.7583 196.23 30.0819 187.559 19.3791 187.559C8.67633 187.559 0 196.23 0 206.927C0 217.624 8.67633 226.295 19.3791 226.295Z" fill="#466EC2"/>
<path d="M218.901 117.039C221.088 117.214 222.663 119.225 222.269 121.367C220.301 133.084 216.451 144.407 210.983 154.725C204.902 166.224 196.766 176.542 187.273 185.023C177.737 193.505 166.8 200.238 155.12 204.785C144.622 208.894 133.51 211.255 122.443 211.824C120.43 211.911 118.724 210.381 118.593 208.414C118.462 206.49 119.774 204.829 121.655 204.479C131.804 202.686 141.516 199.32 150.352 194.511C160.195 189.177 168.944 182.182 176.118 173.962C183.292 165.743 188.935 156.343 192.698 146.375C196.022 137.631 197.903 128.45 198.341 119.312C198.428 117.257 200.265 115.683 202.322 115.815L218.901 117.039Z" fill="#FF6A3B"/>
<path d="M208.621 228C219.324 228 228 219.329 228 208.632C228 197.935 219.324 189.264 208.621 189.264C197.918 189.264 189.242 197.935 189.242 208.632C189.242 219.329 197.918 228 208.621 228Z" fill="#FF6A3B"/>
<path d="M9.5803 110.961C7.39304 110.787 5.81821 108.775 6.21192 106.633C8.18045 94.8725 12.03 83.549 17.4982 73.2311C23.5788 61.7327 31.7154 51.4148 41.2081 42.9331C50.7445 34.4514 61.6808 27.7185 73.3608 23.1716C83.8597 19.062 94.9709 16.7011 106.038 16.1327C108.051 16.0453 109.757 17.5755 109.888 19.5429C110.019 21.4666 108.707 23.1279 106.826 23.4777C96.677 25.2702 86.9656 28.6367 78.129 33.4459C68.2864 38.7797 59.5373 45.7749 52.3631 53.9943C45.1889 62.2136 39.5458 71.6134 35.7837 81.5816C32.459 90.3256 30.578 99.5068 30.1405 108.644C30.0531 110.699 28.2158 112.273 26.1597 112.142L9.5803 110.961Z" fill="#E1D846"/>
<path d="M19.8604 38.7359C30.5632 38.7359 39.2395 30.0646 39.2395 19.368C39.2395 8.67134 30.5632 0 19.8604 0C9.15759 0 0.481262 8.67134 0.481262 19.368C0.481262 30.0646 9.15759 38.7359 19.8604 38.7359Z" fill="#E1D846"/>
<g clip-path="url(#clip0_7_896)">
<path d="M282.233 98.8035C285.046 93.4925 289.048 89.3715 294.238 86.4403C299.428 83.4801 305.402 82 312.158 82C320.712 82 327.932 84.2927 333.76 88.8781C338.979 92.9701 342.517 98.3391 344.431 105.043C344.779 106.291 343.851 107.539 342.546 107.539H325.728C325.003 107.539 324.365 107.162 324.017 106.523C322.828 104.405 321.321 102.779 319.436 101.59C317.261 100.226 314.738 99.558 311.897 99.558C307.489 99.558 303.981 101.125 301.342 104.289C298.703 107.452 297.399 111.631 297.399 116.884C297.399 122.195 298.703 126.432 301.342 129.595C303.981 132.759 307.489 134.326 311.897 134.326C314.738 134.326 317.261 133.658 319.436 132.294C321.321 131.104 322.857 129.479 324.017 127.361C324.365 126.751 325.003 126.345 325.728 126.345H342.546C343.851 126.345 344.779 127.593 344.431 128.841C342.517 135.545 338.979 140.914 333.76 145.006C327.932 149.591 320.712 151.884 312.158 151.884C305.402 151.884 299.457 150.404 294.267 147.444C289.077 144.483 285.075 140.362 282.262 135.08C279.421 129.74 278 123.675 278 116.855C278 110.093 279.421 104.085 282.233 98.8035Z" fill="#151313"/>
<path d="M396.044 140.13H374.558C373.717 140.13 372.963 140.682 372.702 141.465L369.89 149.968C369.629 150.781 368.875 151.303 368.034 151.303H352.202C350.839 151.303 349.911 149.939 350.375 148.663L373.949 83.9444C374.239 83.1608 374.964 82.6675 375.776 82.6675H395.029C395.841 82.6675 396.595 83.1899 396.856 83.9444L420.343 148.663C420.807 149.939 419.85 151.303 418.517 151.303H402.598C401.757 151.303 401.003 150.752 400.742 149.968L397.929 141.465C397.639 140.682 396.885 140.13 396.044 140.13ZM392.333 124.459L386.07 105.682C385.809 104.927 384.765 104.927 384.533 105.682L378.357 124.459C378.183 124.981 378.588 125.532 379.139 125.532H391.579C392.13 125.532 392.507 124.981 392.333 124.459Z" fill="#151313"/>
<path d="M429.419 98.8035C432.232 93.5216 436.233 89.4005 441.424 86.4403C446.614 83.4801 452.587 82 459.343 82C467.897 82 475.117 84.2927 480.946 88.8781C486.165 92.9701 489.703 98.3391 491.616 105.043C491.964 106.291 491.036 107.539 489.732 107.539H472.914C472.189 107.539 471.551 107.162 471.203 106.523C470.014 104.405 468.506 102.779 466.622 101.59C464.447 100.226 461.924 99.558 459.082 99.558C454.675 99.558 451.166 101.125 448.528 104.289C445.889 107.452 444.584 111.631 444.584 116.884C444.584 122.195 445.889 126.432 448.528 129.595C451.166 132.759 454.675 134.326 459.082 134.326C461.924 134.326 464.447 133.658 466.622 132.294C468.506 131.104 470.043 129.479 471.203 127.361C471.551 126.751 472.189 126.345 472.914 126.345H489.732C491.036 126.345 491.964 127.593 491.616 128.841C489.703 135.545 486.165 140.914 480.946 145.006C475.117 149.591 467.897 151.884 459.343 151.884C452.587 151.884 446.643 150.404 441.453 147.444C436.262 144.483 432.261 140.362 429.448 135.08C426.635 129.799 425.215 123.733 425.215 116.913C425.186 110.093 426.606 104.085 429.419 98.8035Z" fill="#151313"/>
<path d="M517.974 82.6675C519.047 82.6675 519.917 83.5381 519.917 84.6119V122.485C519.917 126.171 520.787 129.044 522.498 131.046C524.208 133.049 526.818 134.065 530.327 134.065C533.835 134.065 536.474 133.049 538.243 130.988C540.011 128.957 540.91 126.113 540.91 122.456V84.6409C540.91 83.5671 541.78 82.6965 542.853 82.6965H558.018C559.091 82.6965 559.961 83.5671 559.961 84.6409V122.514C559.961 128.812 558.627 134.181 555.959 138.621C553.292 143.061 549.696 146.399 545.115 148.662C540.533 150.897 535.459 152.029 529.892 152.029C524.324 152.029 519.337 150.897 514.959 148.662C510.58 146.428 507.129 143.09 504.636 138.679C502.142 134.268 500.895 128.87 500.895 122.514V84.6409C500.895 83.5671 501.765 82.6965 502.838 82.6965H517.974V82.6675Z" fill="#151313"/>
<path d="M589.595 84.641V149.359C589.595 150.433 588.725 151.304 587.653 151.304H572.487C571.415 151.304 570.545 150.433 570.545 149.359V84.641C570.545 83.5672 571.415 82.6965 572.487 82.6965H587.653C588.725 82.6675 589.595 83.5672 589.595 84.641Z" fill="#151313"/>
<path d="M662.057 151.333H645.993C645.326 151.333 644.717 151.013 644.369 150.462L623.144 118.393C622.071 116.768 619.549 117.522 619.549 119.467V149.359C619.549 150.433 618.679 151.303 617.606 151.303H602.441C601.368 151.303 600.498 150.433 600.498 149.359V84.641C600.498 83.5672 601.368 82.6965 602.441 82.6965H618.505C619.172 82.6965 619.781 83.0158 620.128 83.5962L641.354 116.071C642.427 117.697 644.949 116.942 644.949 114.998V84.641C644.949 83.5672 645.819 82.6965 646.892 82.6965H662.057C663.13 82.6965 664 83.5672 664 84.641V149.359C664 150.462 663.13 151.333 662.057 151.333Z" fill="#151313"/>
</g>
<defs>
<clipPath id="clip0_7_896">
<rect width="386" height="70" fill="white" transform="translate(278 82)"/>
</clipPath>
</defs>
</svg>
