<svg width="140" height="140" viewBox="0 0 140 140" fill="none" xmlns="http://www.w3.org/2000/svg">
<rect width="140" height="140" fill="#3999B7"/>
<g clip-path="url(#clip0_511_100)">
<path d="M51.8109 77.6066C51.8987 75.5987 52.2725 73.6735 53.4691 71.9951C55.0595 69.7643 57.3448 68.8211 59.9801 68.6758C64.2008 68.4429 67.3214 70.4883 69.8388 73.6485C70.1774 74.0731 70.2916 74.1144 70.6403 73.6598C72.6546 71.0306 75.2059 69.1405 78.5561 68.7385C83.3562 68.1623 87.8302 70.4257 88.5866 76.2801C88.9039 78.7376 88.1777 80.8256 86.7779 82.7195C83.2245 87.5293 78.7116 91.1705 73.2316 93.613C71.2824 94.4823 69.3985 94.4647 67.428 93.628C64.261 92.2815 61.4551 90.3952 58.8487 88.1907C56.6412 86.3231 54.6168 84.2789 53.1141 81.7826C52.3465 80.5025 51.7482 79.1547 51.8109 77.6066Z" fill="white"/>
<path d="M93.2775 90.5668C91.0411 90.5668 88.806 90.5718 86.5696 90.5605C86.3037 90.5592 85.8998 90.7196 85.8208 90.3225C85.7393 89.9154 85.6502 89.4645 86.0955 89.1251C87.2469 88.247 88.2591 87.2262 89.1258 86.0651C92.2453 81.8865 92.5663 77.3961 90.6197 72.6539C90.3099 71.8999 89.916 71.191 89.5021 70.4908C89.0656 69.7518 89.3253 69.3021 90.197 69.2871C90.2183 69.2871 90.2384 69.2871 90.2597 69.2871C93.2625 69.2595 93.2625 69.2595 95.9178 71.4502C97.216 72.5212 97.2197 72.5249 98.5255 71.4803C99.258 70.8941 99.988 70.3054 100.694 69.6891C100.916 69.495 101.171 69.5075 101.397 69.495C103.812 69.3585 106.234 69.148 108.631 69.6616C109.592 69.867 110.475 70.2941 111.346 70.7588C112.718 71.4916 113.518 72.6953 114.097 74.0543C115.448 77.2208 116.025 80.5513 116.073 83.9796C116.085 84.9177 116.02 85.8597 116.079 86.7953C116.171 88.2596 115.309 89.2503 114.471 90.2649C114.334 90.4315 114.11 90.4515 113.893 90.4515C111.198 90.449 108.502 90.454 105.807 90.4465C105.228 90.4453 105.005 90.1885 105.038 89.5647C105.085 88.6453 105.048 87.7297 104.978 86.8141C104.851 85.1695 103.668 84.2977 102.261 84.8125C101.311 85.1607 101.103 85.9949 100.973 86.8617C100.826 87.8362 100.855 88.8194 100.889 89.7977C100.909 90.3876 100.728 90.5906 100.113 90.5818C97.8331 90.5467 95.5553 90.5668 93.2775 90.5668Z" fill="white"/>
<path d="M46.8653 90.6256C44.6089 90.6256 42.3537 90.6256 40.0972 90.6256C39.297 90.6256 39.297 90.6206 39.2794 89.8315C39.2543 88.728 39.3697 87.6195 39.149 86.5235C38.9458 85.5114 38.4127 84.9165 37.5924 84.795C36.2804 84.5996 35.4877 85.192 35.2594 86.5298C35.0901 87.5243 35.1353 88.5251 35.1403 89.5259C35.144 90.3425 35.0023 90.4966 34.2096 90.4979C31.5982 90.5016 28.988 90.4954 26.3766 90.5041C26.0116 90.5054 25.7494 90.3814 25.5124 90.1046C24.5729 89.0086 24.0712 87.8224 24.0599 86.3106C24.0336 82.8259 24.3346 79.4052 25.3418 76.0609C25.6491 75.0401 26.0868 74.0756 26.5823 73.1337C27.671 71.0632 29.6001 70.1776 31.7111 69.6954C34.0917 69.1505 36.5263 69.3722 38.9408 69.5614C39.1766 69.5802 39.3609 69.7129 39.5453 69.862C40.5337 70.6624 41.5447 71.4352 42.523 72.2481C42.8516 72.5224 43.0862 72.4823 43.3885 72.2356C44.4057 71.4039 45.443 70.596 46.4564 69.7593C46.78 69.4925 47.1099 69.3534 47.5351 69.3647C48.3705 69.3873 49.2058 69.361 50.0412 69.376C50.8916 69.391 51.1261 69.8244 50.6897 70.5446C49.3727 72.7178 48.5649 75.0488 48.3855 77.599C48.161 80.7918 49.1732 83.5837 51.0459 86.1139C51.8825 87.2437 52.8646 88.2345 53.9721 89.0988C54.2305 89.3004 54.3986 89.5133 54.4299 89.8678C54.4801 90.4402 54.2731 90.6432 53.6937 90.6369C51.4184 90.6118 49.1419 90.6256 46.8653 90.6256Z" fill="white"/>
<path d="M59.2714 56.0851C59.0833 50.2219 63.9411 45.2305 70.0532 45.0075C76.0399 44.7896 81.1198 49.6182 81.318 55.7169C81.5111 61.6402 76.7386 66.7381 70.8322 66.9198C64.429 67.1164 59.4758 62.4744 59.2714 56.0851Z" fill="white"/>
<path d="M43.6192 51.0035C48.546 51.0399 52.4656 54.9842 52.4255 59.8641C52.3866 64.6126 48.3064 68.4166 43.2767 68.3928C38.533 68.3702 34.5908 64.342 34.6284 59.5547C34.6661 54.8226 38.7187 50.9685 43.6192 51.0035Z" fill="white"/>
<path d="M97.117 50.9973C101.961 51.0086 105.992 54.9328 105.977 59.6224C105.962 64.4986 102.001 68.4028 97.0743 68.3978C92.145 68.3915 88.1463 64.4435 88.1764 59.6136C88.2078 54.8677 92.2353 50.986 97.117 50.9973Z" fill="white"/>
</g>
<defs>
<clipPath id="clip0_511_100">
<rect width="92.0269" height="49.2606" fill="white" transform="translate(24.0586 45)"/>
</clipPath>
</defs>
</svg>
