<svg width="458" height="260" viewBox="0 0 458 260" fill="none" xmlns="http://www.w3.org/2000/svg">
<g clip-path="url(#clip0_504_126)">
<path d="M163.685 116.914C164 109.715 165.34 102.812 169.631 96.7936C175.333 88.7948 183.528 85.413 192.976 84.892C208.11 84.0567 219.3 91.3907 228.326 102.722C229.54 104.244 229.949 104.393 231.2 102.762C238.422 93.3354 247.57 86.5582 259.582 85.1166C276.794 83.0506 292.836 91.1662 295.548 112.158C296.686 120.97 294.082 128.456 289.063 135.247C276.322 152.493 260.14 165.549 240.491 174.307C233.502 177.423 226.747 177.361 219.682 174.36C208.326 169.532 198.265 162.769 188.92 154.864C181.004 148.168 173.746 140.838 168.358 131.888C165.606 127.298 163.46 122.465 163.685 116.914Z" fill="#3999B7"/>
<path d="M312.368 163.384C304.349 163.384 296.335 163.402 288.316 163.362C287.363 163.357 285.915 163.932 285.631 162.508C285.339 161.049 285.02 159.432 286.616 158.215C290.745 155.066 294.374 151.406 297.482 147.243C308.667 132.26 309.818 116.159 302.838 99.1559C301.727 96.4523 300.315 93.9103 298.831 91.3997C297.266 88.7499 298.197 87.1376 301.323 87.0837C301.399 87.0837 301.471 87.0837 301.547 87.0837C312.314 86.9849 312.314 86.9849 321.835 94.8399C326.49 98.6799 326.503 98.6933 331.185 94.9477C333.812 92.8458 336.429 90.735 338.961 88.5253C339.757 87.8292 340.67 87.8741 341.48 87.8292C350.141 87.3397 358.826 86.5852 367.42 88.4265C370.865 89.1631 374.031 90.6946 377.153 92.3608C382.073 94.9881 384.942 99.3041 387.02 104.177C391.863 115.531 393.932 127.473 394.103 139.765C394.148 143.129 393.914 146.506 394.126 149.861C394.454 155.111 391.364 158.664 388.36 162.302C387.87 162.899 387.065 162.971 386.287 162.971C376.622 162.962 366.957 162.98 357.292 162.953C355.219 162.948 354.418 162.028 354.535 159.791C354.706 156.495 354.571 153.212 354.319 149.929C353.865 144.032 349.624 140.906 344.578 142.752C341.174 144 340.427 146.991 339.959 150.099C339.433 153.593 339.537 157.119 339.658 160.626C339.73 162.742 339.082 163.469 336.879 163.438C328.702 163.312 320.535 163.384 312.368 163.384Z" fill="#3999B7"/>
<path d="M145.952 163.595C137.861 163.595 129.775 163.595 121.684 163.595C118.815 163.595 118.815 163.577 118.752 160.748C118.662 156.791 119.076 152.816 118.284 148.887C117.556 145.258 115.644 143.124 112.703 142.689C107.999 141.988 105.156 144.112 104.338 148.909C103.731 152.475 103.893 156.063 103.911 159.652C103.924 162.58 103.416 163.133 100.574 163.137C91.2101 163.151 81.851 163.128 72.4875 163.16C71.1788 163.164 70.2389 162.719 69.3889 161.727C66.0203 157.797 64.2214 153.544 64.1809 148.123C64.0865 135.629 65.1658 123.363 68.7772 111.372C69.8791 107.712 71.4486 104.253 73.2251 100.876C77.1288 93.4521 84.0458 90.2769 91.6148 88.5478C100.151 86.5941 108.88 87.3891 117.538 88.0672C118.383 88.1346 119.044 88.6107 119.705 89.1451C123.249 92.015 126.874 94.786 130.382 97.7008C131.56 98.6844 132.401 98.5406 133.485 97.6559C137.133 94.6737 140.852 91.7769 144.486 88.7768C145.646 87.8202 146.829 87.3217 148.354 87.3621C151.349 87.443 154.344 87.3487 157.339 87.4026C160.388 87.4564 161.23 89.0104 159.664 91.5928C154.942 99.385 152.046 107.743 151.403 116.887C150.598 128.335 154.227 138.346 160.942 147.418C163.941 151.469 167.463 155.022 171.434 158.12C172.36 158.843 172.963 159.607 173.076 160.878C173.255 162.93 172.513 163.658 170.436 163.636C162.277 163.546 154.115 163.595 145.952 163.595Z" fill="#3999B7"/>
<path d="M190.435 39.7468C189.761 18.7237 207.179 0.826403 229.095 0.0269756C250.561 -0.754487 268.775 16.559 269.486 38.4264C270.178 59.6651 253.066 77.9442 231.888 78.5954C208.929 79.3005 191.169 62.6563 190.435 39.7468Z" fill="#266A85"/>
<path d="M134.313 21.5262C151.978 21.6564 166.033 35.7991 165.889 53.2966C165.749 70.3226 151.119 83.9623 133.085 83.877C116.076 83.7961 101.941 69.3526 102.076 52.1873C102.211 35.2197 116.742 21.4004 134.313 21.5262Z" fill="#266A85"/>
<path d="M326.134 21.5037C343.503 21.5441 357.958 35.615 357.904 52.4299C357.85 69.914 343.647 83.9129 325.982 83.895C308.307 83.8725 293.969 69.7164 294.077 52.3984C294.19 35.3814 308.631 21.4633 326.134 21.5037Z" fill="#266A85"/>
</g>
<path d="M13.8891 206.11C15.2567 206.11 16.4512 207.034 16.7936 208.359L24.2652 237.252C24.5563 238.377 25.558 239.174 26.7203 239.204C27.9055 239.235 28.9621 238.462 29.2912 237.323L37.6838 208.277C38.0546 206.993 39.2297 206.11 40.5659 206.11H47.6063C51.0129 206.11 53.4221 209.442 52.3543 212.677L39.337 252.114C37.9844 256.211 34.156 258.979 29.8409 258.979H24.6811C20.366 258.979 16.5375 256.211 15.185 252.114L2.16769 212.677C1.09991 209.442 3.50911 206.11 6.91573 206.11H13.8891Z" fill="#3999B7"/>
<path d="M73.8835 259.702C69.5809 259.702 65.8979 258.85 62.8345 257.147C59.7711 255.425 57.4219 253.033 55.7869 249.97C54.152 246.889 53.3345 243.318 53.3345 239.256C53.3345 235.195 54.152 231.632 55.7869 228.569C57.4219 225.488 59.7711 223.096 62.8345 221.392C65.8979 219.671 69.5809 218.811 73.8835 218.811C78.186 218.811 81.869 219.671 84.9324 221.392C87.9959 223.096 90.345 225.488 91.98 228.569C93.615 231.632 94.4325 235.195 94.4325 239.256C94.4325 243.318 93.615 246.889 91.98 249.97C90.345 253.033 87.9959 255.425 84.9324 257.147C81.869 258.85 78.186 259.702 73.8835 259.702ZM73.9867 249.17C75.1915 249.17 76.2327 248.765 77.1104 247.956C77.9881 247.147 78.6679 245.994 79.1498 244.497C79.6317 243 79.8726 241.218 79.8726 239.153C79.8726 237.071 79.6317 235.29 79.1498 233.809C78.6679 232.312 77.9881 231.159 77.1104 230.35C76.2327 229.541 75.1915 229.137 73.9867 229.137C72.7132 229.137 71.6203 229.541 70.7082 230.35C69.796 231.159 69.099 232.312 68.6171 233.809C68.1353 235.29 67.8943 237.071 67.8943 239.153C67.8943 241.218 68.1353 243 68.6171 244.497C69.099 245.994 69.796 247.147 70.7082 247.956C71.6203 248.765 72.7132 249.17 73.9867 249.17Z" fill="#3999B7"/>
<path d="M109.465 206.11C112.227 206.11 114.465 208.348 114.465 211.11V258.979H110.215C104.692 258.979 100.215 254.502 100.215 248.979V211.11C100.215 208.348 102.454 206.11 105.215 206.11H109.465Z" fill="#3999B7"/>
<path d="M147.438 241.631V222.327C147.438 220.67 148.781 219.327 150.438 219.327H156.688C159.449 219.327 161.688 221.566 161.688 224.327V258.979H155.699C151.536 258.979 148.161 255.604 148.161 251.441H147.748C146.887 253.971 145.381 255.95 143.23 257.379C141.079 258.79 138.523 259.496 135.563 259.496C132.792 259.496 130.365 258.859 128.283 257.585C126.218 256.312 124.608 254.556 123.455 252.319C122.319 250.082 121.743 247.517 121.726 244.626V224.327C121.726 221.566 123.964 219.327 126.726 219.327H132.976C134.633 219.327 135.976 220.67 135.976 222.327V241.631C135.993 243.593 136.492 245.134 137.473 246.252C138.471 247.371 139.865 247.93 141.655 247.93C142.843 247.93 143.867 247.681 144.727 247.182C145.605 246.665 146.276 245.943 146.741 245.013C147.223 244.067 147.455 242.939 147.438 241.631Z" fill="#3999B7"/>
<path d="M183.186 236.675V248.979C183.186 254.502 178.708 258.979 173.186 258.979H168.936V224.327C168.936 221.566 171.174 219.327 173.936 219.327H179.463C181.12 219.327 182.463 220.67 182.463 222.327V226.865H182.876C183.736 224.352 185.251 222.382 187.419 220.953C189.605 219.525 192.152 218.811 195.061 218.811C197.866 218.811 200.301 219.456 202.366 220.747C204.449 222.02 206.058 223.776 207.194 226.013C208.347 228.251 208.915 230.806 208.898 233.68V251.854C208.898 255.789 205.708 258.979 201.773 258.979C197.838 258.979 194.648 255.789 194.648 251.854V236.675C194.665 234.713 194.166 233.173 193.15 232.054C192.152 230.935 190.758 230.376 188.968 230.376C187.798 230.376 186.774 230.634 185.896 231.15C185.036 231.65 184.373 232.372 183.908 233.319C183.444 234.248 183.203 235.367 183.186 236.675Z" fill="#3999B7"/>
<path d="M234.579 219.327C237.341 219.327 239.579 221.566 239.579 224.327V224.653C239.579 227.415 237.341 229.653 234.579 229.653H218.454C215.693 229.653 213.454 227.415 213.454 224.653V224.327C213.454 221.566 215.693 219.327 218.454 219.327H234.579ZM218.514 214.827C218.514 212.066 220.752 209.827 223.514 209.827H227.764C230.525 209.827 232.764 212.066 232.764 214.827V246.227C232.764 246.777 232.859 247.242 233.048 247.621C233.237 247.982 233.53 248.257 233.926 248.447C234.321 248.619 234.829 248.705 235.449 248.705C235.879 248.705 236.378 248.653 236.946 248.55C237.653 248.425 238.358 248.878 238.503 249.581L239.732 255.542C240.054 257.107 239.122 258.644 237.566 259.005C236.395 259.281 235.001 259.461 233.383 259.547C230.114 259.719 227.369 259.384 225.148 258.541C222.928 257.68 221.259 256.329 220.14 254.488C219.022 252.646 218.479 250.34 218.514 247.569V214.827Z" fill="#3999B7"/>
<path d="M256.443 259.599C253.913 259.599 251.676 259.186 249.731 258.36C247.803 257.517 246.289 256.243 245.188 254.539C244.086 252.835 243.535 250.667 243.535 248.034C243.535 245.865 243.905 244.015 244.645 242.483C245.385 240.934 246.418 239.67 247.743 238.689C249.068 237.708 250.609 236.959 252.364 236.443C254.137 235.926 256.047 235.591 258.095 235.436C260.315 235.264 262.097 235.057 263.439 234.816C264.799 234.558 265.78 234.205 266.382 233.758C266.984 233.293 267.285 232.682 267.285 231.925V231.822C267.285 230.789 266.89 229.997 266.098 229.447C265.306 228.896 264.291 228.621 263.052 228.621C261.692 228.621 260.582 228.922 259.722 229.524C258.212 230.572 256.832 232.235 254.994 232.235H250.454C247.552 232.235 245.188 229.681 246.495 227.09C246.755 226.574 247.051 226.068 247.382 225.574C248.759 223.526 250.764 221.891 253.397 220.669C256.03 219.43 259.317 218.811 263.258 218.811C266.098 218.811 268.645 219.146 270.9 219.818C273.154 220.472 275.073 221.392 276.656 222.58C278.24 223.75 279.444 225.127 280.271 226.71C281.114 228.276 281.536 229.98 281.536 231.822V258.979H273.791C270.711 258.979 268.215 256.483 268.215 253.403H267.905C267.113 254.883 266.15 256.079 265.014 256.992C263.895 257.904 262.613 258.566 261.167 258.979C259.739 259.392 258.164 259.599 256.443 259.599ZM261.09 250.615C262.174 250.615 263.189 250.392 264.136 249.944C265.1 249.497 265.883 248.851 266.485 248.008C267.088 247.165 267.389 246.141 267.389 244.936V241.631C267.01 241.786 266.606 241.933 266.175 242.07C265.762 242.208 265.315 242.337 264.833 242.458C264.368 242.578 263.869 242.69 263.336 242.793C262.819 242.896 262.277 242.991 261.709 243.077C260.608 243.249 259.704 243.533 258.999 243.929C258.31 244.308 257.794 244.781 257.45 245.349C257.123 245.9 256.959 246.519 256.959 247.208C256.959 248.309 257.347 249.152 258.121 249.738C258.896 250.323 259.885 250.615 261.09 250.615Z" fill="#3999B7"/>
<path d="M288.138 211.11C288.138 208.348 290.376 206.11 293.138 206.11H302.634C304.67 206.11 306.503 207.344 307.268 209.231L316.322 231.563C316.708 232.515 317.633 233.138 318.661 233.138C319.692 233.138 320.62 232.511 321.003 231.553L329.94 209.25C330.7 207.353 332.537 206.11 334.581 206.11H344.062C346.823 206.11 349.062 208.348 349.062 211.11V258.979H345.018C339.496 258.979 335.018 254.502 335.018 248.979V228.414H334.605L324.371 254.627C323.444 257.003 321.155 258.566 318.605 258.566C316.05 258.566 313.757 256.996 312.834 254.614L302.594 228.208H302.181V248.979C302.181 254.502 297.704 258.979 292.181 258.979H288.138V211.11Z" fill="#333333"/>
<path d="M367.12 259.599C364.59 259.599 362.353 259.186 360.408 258.36C358.48 257.517 356.966 256.243 355.864 254.539C354.763 252.835 354.212 250.667 354.212 248.034C354.212 245.865 354.582 244.015 355.322 242.483C356.062 240.934 357.095 239.67 358.42 238.689C359.745 237.708 361.286 236.959 363.041 236.443C364.814 235.926 366.724 235.591 368.772 235.436C370.992 235.264 372.773 235.057 374.116 234.816C375.475 234.558 376.456 234.205 377.059 233.758C377.661 233.293 377.962 232.682 377.962 231.925V231.822C377.962 230.789 377.566 229.997 376.775 229.447C375.983 228.896 374.968 228.621 373.729 228.621C372.369 228.621 371.259 228.922 370.398 229.524C368.889 230.572 367.509 232.235 365.671 232.235H361.131C358.229 232.235 355.865 229.681 357.172 227.09C357.432 226.574 357.728 226.068 358.059 225.574C359.435 223.526 361.44 221.891 364.074 220.669C366.707 219.43 369.994 218.811 373.935 218.811C376.775 218.811 379.322 219.146 381.576 219.818C383.831 220.472 385.75 221.392 387.333 222.58C388.917 223.75 390.121 225.127 390.947 226.71C391.791 228.276 392.212 229.98 392.212 231.822V258.979H384.468C381.388 258.979 378.892 256.483 378.892 253.403H378.582C377.79 254.883 376.826 256.079 375.69 256.992C374.572 257.904 373.29 258.566 371.844 258.979C370.416 259.392 368.841 259.599 367.12 259.599ZM371.767 250.615C372.851 250.615 373.866 250.392 374.813 249.944C375.777 249.497 376.56 248.851 377.162 248.008C377.764 247.165 378.066 246.141 378.066 244.936V241.631C377.687 241.786 377.282 241.933 376.852 242.07C376.439 242.208 375.992 242.337 375.51 242.458C375.045 242.578 374.546 242.69 374.013 242.793C373.496 242.896 372.954 242.991 372.386 243.077C371.285 243.249 370.381 243.533 369.676 243.929C368.987 244.308 368.471 244.781 368.127 245.349C367.8 245.9 367.636 246.519 367.636 247.208C367.636 248.309 368.023 249.152 368.798 249.738C369.572 250.323 370.562 250.615 371.767 250.615Z" fill="#333333"/>
<path d="M406.146 258.979C402.211 258.979 399.021 255.789 399.021 251.854V224.327C399.021 221.566 401.26 219.327 404.021 219.327H408.271C411.033 219.327 413.271 221.566 413.271 224.327V251.854C413.271 255.789 410.081 258.979 406.146 258.979ZM406.146 215.197C404.219 215.197 402.566 214.56 401.19 213.286C399.813 212.013 399.124 210.481 399.124 208.691C399.124 206.901 399.813 205.37 401.19 204.096C402.566 202.822 404.219 202.186 406.146 202.186C408.091 202.186 409.743 202.822 411.103 204.096C412.479 205.37 413.168 206.901 413.168 208.691C413.168 210.481 412.479 212.013 411.103 213.286C409.743 214.56 408.091 215.197 406.146 215.197Z" fill="#333333"/>
<path d="M455.62 227.19C456.813 229.769 454.409 232.235 451.567 232.235H445.958C444.66 232.235 443.653 231.132 442.81 230.144C442.311 229.559 441.666 229.111 440.874 228.801C440.1 228.474 439.239 228.311 438.293 228.311C437.071 228.311 436.021 228.535 435.143 228.982C434.265 229.429 433.835 230.066 433.852 230.892C433.835 231.477 434.085 232.02 434.601 232.519C435.135 233.018 436.159 233.405 437.673 233.68L445.727 235.126C449.789 235.866 452.809 237.114 454.789 238.869C456.785 240.607 457.792 242.939 457.809 245.865C457.792 248.688 456.949 251.14 455.279 253.223C453.627 255.288 451.364 256.888 448.49 258.024C445.633 259.143 442.371 259.702 438.706 259.702C432.648 259.702 427.906 258.463 424.481 255.985C423.414 255.208 422.494 254.354 421.722 253.423C419.007 250.145 422.463 246.175 426.72 246.175H429.352C431.405 246.175 433.065 247.966 434.782 249.092C435.849 249.763 437.191 250.099 438.809 250.099C440.117 250.099 441.193 249.875 442.036 249.428C442.896 248.98 443.335 248.343 443.352 247.517C443.335 246.76 442.957 246.158 442.217 245.71C441.494 245.263 440.358 244.901 438.809 244.626L431.787 243.387C427.743 242.681 424.714 241.339 422.7 239.36C420.687 237.381 419.688 234.833 419.706 231.718C419.688 228.965 420.411 226.633 421.874 224.722C423.354 222.795 425.462 221.332 428.199 220.334C430.953 219.318 434.214 218.811 437.983 218.811C443.714 218.811 448.232 219.998 451.536 222.373C453.386 223.696 454.747 225.301 455.62 227.19Z" fill="#333333"/>
<defs>
<clipPath id="clip0_504_126">
<rect width="329.972" height="176.628" fill="white" transform="translate(64.1768)"/>
</clipPath>
</defs>
</svg>
