<svg width="264" height="150" viewBox="0 0 264 150" fill="none" xmlns="http://www.w3.org/2000/svg">
<path d="M94.272 67.3346C94.4533 63.1883 95.2252 59.2127 97.6962 55.7466C100.981 51.1399 105.7 49.1922 111.142 48.8921C119.858 48.411 126.302 52.635 131.501 59.161C132.2 60.0378 132.436 60.1232 133.156 59.1842C137.316 53.755 142.584 49.8518 149.502 49.0215C159.415 47.8316 168.654 52.5056 170.216 64.5954C170.871 69.6703 169.372 73.9822 166.481 77.8932C159.143 87.8257 149.824 95.345 138.507 100.389C134.482 102.184 130.591 102.148 126.522 100.42C119.982 97.6393 114.188 93.7439 108.805 89.1914C104.247 85.3348 100.066 81.1135 96.9632 75.9584C95.378 73.3149 94.1425 70.5317 94.272 67.3346Z" fill="white"/>
<path d="M179.903 94.0982C175.285 94.0982 170.669 94.1086 166.051 94.0853C165.502 94.0827 164.668 94.4138 164.505 93.5938C164.336 92.7532 164.152 91.822 165.072 91.1211C167.45 89.3078 169.54 87.1998 171.33 84.802C177.772 76.1731 178.435 66.9001 174.415 57.1072C173.775 55.5501 172.962 54.086 172.107 52.6401C171.205 51.114 171.742 50.1854 173.542 50.1544C173.586 50.1544 173.627 50.1544 173.671 50.1544C179.872 50.0975 179.872 50.0975 185.356 54.6215C188.036 56.833 188.044 56.8408 190.741 54.6836C192.253 53.473 193.761 52.2573 195.219 50.9847C195.677 50.5838 196.203 50.6097 196.67 50.5838C201.658 50.3018 206.66 49.8673 211.61 50.9278C213.594 51.352 215.417 52.234 217.215 53.1937C220.048 54.7068 221.701 57.1926 222.898 59.999C225.687 66.538 226.879 73.4158 226.977 80.4953C227.003 82.4327 226.868 84.3778 226.99 86.31C227.179 89.3337 225.4 91.3797 223.669 93.4749C223.387 93.8189 222.924 93.8603 222.475 93.8603C216.909 93.8551 211.343 93.8654 205.777 93.8499C204.582 93.8473 204.121 93.3171 204.189 92.029C204.287 90.1304 204.21 88.2396 204.064 86.3488C203.803 82.9526 201.36 81.1523 198.454 82.2154C196.493 82.9345 196.063 84.6571 195.794 86.4471C195.491 88.4594 195.551 90.4899 195.62 92.5101C195.662 93.7284 195.289 94.1474 194.02 94.1293C189.311 94.0569 184.607 94.0982 179.903 94.0982Z" fill="white"/>
<path d="M84.059 94.2198C79.3993 94.2198 74.7421 94.2198 70.0824 94.2198C68.4299 94.2198 68.4299 94.2095 68.3936 92.5799C68.3418 90.3011 68.5801 88.0119 68.1242 85.7487C67.7046 83.6587 66.6038 82.43 64.9098 82.1791C62.2005 81.7756 60.5635 82.9991 60.0921 85.7616C59.7424 87.8154 59.8357 89.8821 59.846 91.9488C59.8538 93.6352 59.5611 93.9534 57.9241 93.956C52.5314 93.9637 47.1412 93.9508 41.7485 93.9689C40.9947 93.9715 40.4534 93.7154 39.9638 93.1438C38.0238 90.8805 36.9877 88.431 36.9644 85.3089C36.91 78.113 37.5317 71.049 39.6116 64.1428C40.2462 62.0347 41.1501 60.043 42.1733 58.0979C44.4215 53.8222 48.4052 51.9935 52.7645 50.9976C57.6806 49.8725 62.7082 50.3303 67.6943 50.7209C68.1812 50.7597 68.562 51.0338 68.9427 51.3416C70.9838 52.9945 73.0715 54.5904 75.0918 56.2691C75.7704 56.8356 76.2548 56.7528 76.879 56.2433C78.9796 54.5258 81.1217 52.8574 83.2146 51.1295C83.8829 50.5786 84.5641 50.2915 85.4421 50.3148C87.1672 50.3613 88.8923 50.307 90.6173 50.338C92.3734 50.3691 92.8578 51.264 91.9564 52.7513C89.2367 57.2391 87.5687 62.0528 87.1983 67.3191C86.7346 73.9124 88.8249 79.6779 92.692 84.9028C94.4197 87.236 96.4478 89.282 98.7349 91.0667C99.2685 91.4832 99.6156 91.9229 99.6803 92.6549C99.7839 93.837 99.3566 94.256 98.1599 94.2431C93.4613 94.1913 88.7602 94.2198 84.059 94.2198Z" fill="white"/>
<path d="M109.678 22.8916C109.29 10.7837 119.322 0.476057 131.944 0.0156415C144.306 -0.434428 154.797 9.53693 155.206 22.1311C155.605 34.3632 145.749 44.8907 133.552 45.2657C120.329 45.6718 110.101 36.0858 109.678 22.8916Z" fill="white"/>
<path d="M77.3556 12.3977C87.5298 12.4727 95.6241 20.618 95.5413 30.6954C95.461 40.5012 87.0351 48.3567 76.6485 48.3076C66.8525 48.261 58.7115 39.9425 58.7892 30.0565C58.867 20.2843 67.2358 12.3253 77.3556 12.3977Z" fill="white"/>
<path d="M187.832 12.3848C197.835 12.4081 206.16 20.5119 206.129 30.1961C206.098 40.2658 197.918 48.3283 187.744 48.3179C177.564 48.305 169.307 40.152 169.369 30.178C169.434 20.3774 177.751 12.3615 187.832 12.3848Z" fill="white"/>
<path d="M7.01413 118.705C8.38171 118.705 9.5762 119.63 9.91858 120.954L13.9751 136.641C14.1428 137.289 14.7196 137.748 15.3891 137.765C16.0717 137.783 16.6802 137.338 16.8698 136.682L21.4377 120.872C21.8086 119.589 22.9837 118.705 24.3198 118.705H24.4852C27.8918 118.705 30.301 122.037 29.2333 125.272L23.1212 143.789C22.0642 146.991 19.0725 149.154 15.7005 149.154C12.3284 149.154 9.33673 146.991 8.27979 143.789L2.16769 125.272C1.09991 122.037 3.50911 118.705 6.91573 118.705H7.01413Z" fill="white"/>
<path d="M42.5519 149.571C40.0739 149.571 37.9527 149.08 36.1884 148.099C34.4241 147.108 33.0711 145.73 32.1295 143.966C31.1878 142.191 30.717 140.135 30.717 137.795C30.717 135.456 31.1878 133.404 32.1295 131.64C33.0711 129.866 34.4241 128.488 36.1884 127.507C37.9527 126.516 40.0739 126.02 42.5519 126.02C45.0298 126.02 47.151 126.516 48.9153 127.507C50.6796 128.488 52.0326 129.866 52.9742 131.64C53.9159 133.404 54.3867 135.456 54.3867 137.795C54.3867 140.135 53.9159 142.191 52.9742 143.966C52.0326 145.73 50.6796 147.108 48.9153 148.099C47.151 149.08 45.0298 149.571 42.5519 149.571ZM42.6113 143.505C43.3052 143.505 43.9048 143.272 44.4103 142.806C44.9158 142.34 45.3074 141.676 45.5849 140.814C45.8624 139.951 46.0012 138.925 46.0012 137.736C46.0012 136.537 45.8624 135.511 45.5849 134.658C45.3074 133.796 44.9158 133.132 44.4103 132.666C43.9048 132.2 43.3052 131.967 42.6113 131.967C41.8778 131.967 41.2484 132.2 40.7231 132.666C40.1978 133.132 39.7963 133.796 39.5188 134.658C39.2413 135.511 39.1025 136.537 39.1025 137.736C39.1025 138.925 39.2413 139.951 39.5188 140.814C39.7963 141.676 40.1978 142.34 40.7231 142.806C41.2484 143.272 41.8778 143.505 42.6113 143.505Z" fill="white"/>
<path d="M61.8206 118.705C64.0869 118.705 65.9241 120.542 65.9241 122.809V149.154C61.3915 149.154 57.7171 145.48 57.7171 140.947V122.809C57.7171 120.542 59.5543 118.705 61.8206 118.705Z" fill="white"/>
<path d="M84.9141 139.163V129.317C84.9141 127.661 86.2573 126.317 87.9141 126.317H88.1212C90.8826 126.317 93.1212 128.556 93.1212 131.317V149.154H89.6719C87.2742 149.154 85.3304 147.211 85.3304 144.813H85.0926C84.597 146.27 83.7297 147.41 82.4907 148.233C81.2517 149.045 79.7798 149.452 78.0749 149.452C76.4791 149.452 75.0815 149.085 73.8822 148.352C72.6927 147.618 71.766 146.607 71.1019 145.319C70.4477 144.03 70.1156 142.553 70.1057 140.888V131.317C70.1057 128.556 72.3443 126.317 75.1057 126.317H75.3128C76.9697 126.317 78.3128 127.661 78.3128 129.317V139.163C78.3227 140.293 78.6102 141.18 79.1751 141.825C79.75 142.469 80.5529 142.791 81.5837 142.791C82.2677 142.791 82.8574 142.647 83.353 142.36C83.8585 142.062 84.2451 141.646 84.5127 141.111C84.7902 140.566 84.924 139.917 84.9141 139.163Z" fill="white"/>
<path d="M105.502 136.309V140.947C105.502 145.48 101.828 149.154 97.2954 149.154V131.187C97.2954 128.497 99.4754 126.317 102.165 126.317C103.778 126.317 105.086 127.625 105.086 129.239V130.659H105.324C105.82 129.212 106.692 128.077 107.941 127.254C109.2 126.431 110.667 126.02 112.342 126.02C113.957 126.02 115.36 126.392 116.549 127.135C117.749 127.869 118.675 128.88 119.33 130.168C119.994 131.457 120.321 132.929 120.311 134.584V145.051C120.311 147.317 118.474 149.154 116.207 149.154C113.941 149.154 112.104 147.317 112.104 145.051V136.309C112.114 135.179 111.826 134.292 111.241 133.647C110.667 133.003 109.864 132.681 108.833 132.681C108.159 132.681 107.569 132.83 107.064 133.127C106.568 133.414 106.186 133.831 105.919 134.376C105.651 134.911 105.512 135.555 105.502 136.309Z" fill="white"/>
<path d="M135.008 126.317C136.65 126.317 137.981 127.649 137.981 129.291C137.981 130.933 136.65 132.265 135.008 132.265H125.909C124.266 132.265 122.935 130.933 122.935 129.291C122.935 127.649 124.266 126.317 125.909 126.317H135.008ZM125.849 124.95C125.849 122.683 127.686 120.846 129.953 120.846C132.219 120.846 134.056 122.683 134.056 124.95V141.81C134.056 142.127 134.111 142.395 134.22 142.613C134.329 142.821 134.497 142.979 134.725 143.088C134.953 143.187 135.246 143.237 135.602 143.237C135.85 143.237 136.138 143.207 136.465 143.148C136.872 143.076 137.278 143.337 137.361 143.742L138.069 147.175C138.255 148.076 137.718 148.962 136.822 149.169C136.148 149.328 135.345 149.432 134.413 149.482C132.53 149.581 130.949 149.387 129.67 148.902C128.392 148.406 127.43 147.628 126.786 146.567C126.142 145.507 125.829 144.179 125.849 142.583V124.95Z" fill="white"/>
<path d="M147.694 149.511C146.237 149.511 144.948 149.273 143.828 148.798C142.718 148.312 141.846 147.578 141.211 146.597C140.577 145.616 140.26 144.367 140.26 142.85C140.26 141.602 140.473 140.536 140.899 139.654C141.325 138.762 141.92 138.033 142.683 137.468C143.446 136.903 144.334 136.472 145.345 136.175C146.366 135.877 147.466 135.684 148.645 135.595C149.924 135.496 150.95 135.377 151.723 135.238C152.506 135.089 153.071 134.886 153.418 134.629C153.765 134.361 153.938 134.009 153.938 133.573V133.513C153.938 132.919 153.71 132.463 153.254 132.146C152.798 131.828 152.214 131.67 151.5 131.67C150.717 131.67 150.078 131.843 149.582 132.19C148.712 132.794 147.918 133.751 146.859 133.751H145.257C143.039 133.751 141.241 131.759 142.475 129.915C143.268 128.736 144.423 127.794 145.939 127.091C147.456 126.377 149.349 126.02 151.619 126.02C153.254 126.02 154.721 126.213 156.02 126.6C157.318 126.977 158.423 127.507 159.335 128.191C160.247 128.865 160.941 129.658 161.417 130.57C161.902 131.472 162.145 132.453 162.145 133.513V149.154H157.685C155.911 149.154 154.473 147.717 154.473 145.943H154.295C153.839 146.795 153.284 147.484 152.63 148.01C151.986 148.535 151.247 148.917 150.415 149.154C149.592 149.392 148.685 149.511 147.694 149.511ZM150.37 144.337C150.994 144.337 151.579 144.208 152.124 143.951C152.679 143.693 153.13 143.321 153.477 142.836C153.824 142.35 153.998 141.76 153.998 141.066V139.163C153.78 139.252 153.547 139.337 153.299 139.416C153.061 139.495 152.803 139.57 152.526 139.639C152.258 139.708 151.971 139.773 151.663 139.832C151.366 139.892 151.054 139.946 150.727 139.996C150.092 140.095 149.572 140.259 149.166 140.486C148.769 140.705 148.472 140.977 148.274 141.304C148.085 141.621 147.991 141.978 147.991 142.375C147.991 143.009 148.214 143.495 148.66 143.832C149.106 144.169 149.676 144.337 150.37 144.337Z" fill="white"/>
<path d="M165.948 123.705C165.948 120.944 168.186 118.705 170.948 118.705H173.837C175.287 118.705 176.593 119.585 177.138 120.929L182.18 133.364C182.402 133.913 182.935 134.272 183.527 134.272C184.121 134.272 184.655 133.91 184.876 133.359L189.856 120.929C190.395 119.586 191.696 118.705 193.143 118.705H196.036C198.797 118.705 201.036 120.944 201.036 123.705V149.154C196.569 149.154 192.948 145.533 192.948 141.066V131.551H192.71L186.816 146.648C186.282 148.016 184.963 148.917 183.495 148.917C182.023 148.917 180.703 148.012 180.171 146.64L174.274 131.432H174.036V141.066C174.036 145.533 170.415 149.154 165.948 149.154V123.705Z" fill="white"/>
<path d="M211.436 149.511C209.979 149.511 208.69 149.273 207.57 148.798C206.46 148.312 205.588 147.578 204.954 146.597C204.319 145.616 204.002 144.367 204.002 142.85C204.002 141.602 204.215 140.536 204.641 139.654C205.068 138.762 205.662 138.033 206.426 137.468C207.189 136.903 208.076 136.472 209.087 136.175C210.108 135.877 211.208 135.684 212.388 135.595C213.666 135.496 214.692 135.377 215.465 135.238C216.248 135.089 216.813 134.886 217.16 134.629C217.507 134.361 217.681 134.009 217.681 133.573V133.513C217.681 132.919 217.453 132.463 216.997 132.146C216.541 131.828 215.956 131.67 215.242 131.67C214.459 131.67 213.82 131.843 213.324 132.19C212.455 132.794 211.66 133.751 210.602 133.751H208.999C206.781 133.751 204.983 131.759 206.217 129.915C207.01 128.736 208.165 127.794 209.682 127.091C211.198 126.377 213.091 126.02 215.361 126.02C216.997 126.02 218.464 126.213 219.762 126.6C221.061 126.977 222.166 127.507 223.078 128.191C223.989 128.865 224.683 129.658 225.159 130.57C225.645 131.472 225.888 132.453 225.888 133.513V149.154H221.427C219.654 149.154 218.216 147.717 218.216 145.943H218.037C217.581 146.795 217.026 147.484 216.372 148.01C215.728 148.535 214.989 148.917 214.157 149.154C213.334 149.392 212.427 149.511 211.436 149.511ZM214.112 144.337C214.737 144.337 215.321 144.208 215.867 143.951C216.422 143.693 216.873 143.321 217.22 142.836C217.567 142.35 217.74 141.76 217.74 141.066V139.163C217.522 139.252 217.289 139.337 217.041 139.416C216.803 139.495 216.546 139.57 216.268 139.639C216 139.708 215.713 139.773 215.406 139.832C215.108 139.892 214.796 139.946 214.469 139.996C213.835 140.095 213.314 140.259 212.908 140.486C212.511 140.705 212.214 140.977 212.016 141.304C211.828 141.621 211.733 141.978 211.733 142.375C211.733 143.009 211.956 143.495 212.402 143.832C212.848 144.169 213.418 144.337 214.112 144.337Z" fill="white"/>
<path d="M233.913 149.154C231.646 149.154 229.809 147.317 229.809 145.051V130.421C229.809 128.155 231.646 126.317 233.913 126.317C236.179 126.317 238.016 128.155 238.016 130.421V145.051C238.016 147.317 236.179 149.154 233.913 149.154ZM233.913 123.939C232.802 123.939 231.851 123.572 231.058 122.838C230.265 122.105 229.868 121.223 229.868 120.192C229.868 119.161 230.265 118.279 231.058 117.545C231.851 116.812 232.802 116.445 233.913 116.445C235.033 116.445 235.984 116.812 236.767 117.545C237.56 118.279 237.957 119.161 237.957 120.192C237.957 121.223 237.56 122.105 236.767 122.838C235.984 123.572 235.033 123.939 233.913 123.939Z" fill="white"/>
<path d="M261.912 129.962C263.124 131.785 261.248 133.751 259.058 133.751H256.842C256.094 133.751 255.514 133.116 255.029 132.547C254.741 132.21 254.369 131.952 253.914 131.774C253.467 131.586 252.972 131.491 252.427 131.491C251.723 131.491 251.118 131.62 250.613 131.878C250.107 132.136 249.86 132.502 249.869 132.978C249.86 133.315 250.003 133.627 250.301 133.915C250.608 134.202 251.198 134.425 252.07 134.584L256.709 135.417C259.048 135.843 260.787 136.561 261.927 137.572C263.077 138.573 263.657 139.917 263.667 141.602C263.657 143.227 263.171 144.64 262.21 145.839C261.258 147.028 259.955 147.95 258.3 148.604C256.654 149.249 254.776 149.571 252.665 149.571C249.176 149.571 246.445 148.857 244.472 147.43C243.858 146.983 243.328 146.491 242.883 145.954C241.319 144.066 243.31 141.78 245.762 141.78H247.278C248.46 141.78 249.416 142.812 250.405 143.46C251.019 143.847 251.792 144.04 252.724 144.04C253.477 144.04 254.097 143.911 254.583 143.653C255.078 143.396 255.331 143.029 255.341 142.553C255.331 142.117 255.113 141.77 254.687 141.512C254.27 141.255 253.616 141.047 252.724 140.888L248.68 140.174C246.351 139.768 244.606 138.995 243.447 137.855C242.287 136.715 241.712 135.248 241.722 133.454C241.712 131.868 242.128 130.525 242.971 129.425C243.823 128.315 245.037 127.472 246.613 126.897C248.199 126.312 250.078 126.02 252.248 126.02C255.549 126.02 258.151 126.704 260.054 128.072C260.818 128.618 261.437 129.248 261.912 129.962Z" fill="white"/>
</svg>
