<svg width="804" height="458" viewBox="0 0 804 458" fill="none" xmlns="http://www.w3.org/2000/svg">
  <rect x="322" width="160" height="160" rx="18" fill="#235F43"/>
  <circle cx="402" cy="48" r="15" fill="white"/>
  <circle cx="371" cy="61" r="11" fill="#DCEFE3"/>
  <circle cx="433" cy="61" r="11" fill="#DCEFE3"/>
  <path d="M359 77c-8 0-14 7-15 24l-1 13h36v-9c0-8 4-13 11-15-7-7-14-13-31-13Z" fill="#DCEFE3"/>
  <path d="M445 77c8 0 14 7 15 24l1 13h-36v-9c0-8-4-13-11-15 7-7 14-13 31-13Z" fill="#DCEFE3"/>
  <path d="M402 120c-2 0-4-.7-5.7-2.1C377 102.4 367 91.4 367 78.8 367 67.8 375.1 60 385.3 60c6.2 0 12.2 3 16.7 8.8C406.5 63 412.5 60 418.7 60 428.9 60 437 67.8 437 78.8c0 12.6-10 23.6-29.3 39.1A8.9 8.9 0 0 1 402 120Z" fill="white"/>
  <text x="402" y="145" text-anchor="middle" font-family="Inter, Arial, sans-serif" font-size="26" font-weight="900" fill="white">IVG</text>
  <text x="402" y="285" text-anchor="middle" font-family="Inter, Arial, sans-serif" font-size="72" font-weight="900" fill="#235F43">Instituto Vitor Gabriel</text>
  <text x="402" y="348" text-anchor="middle" font-family="Inter, Arial, sans-serif" font-size="34" font-weight="800" fill="#647267">Voluntariado e cuidado familiar</text>
</svg>
