<svg width="160" height="160" viewBox="0 0 160 160" fill="none" xmlns="http://www.w3.org/2000/svg">
  <rect width="160" height="160" rx="18" fill="#235F43"/>
  <circle cx="80" cy="48" r="15" fill="white"/>
  <circle cx="49" cy="61" r="11" fill="#DCEFE3"/>
  <circle cx="111" cy="61" r="11" fill="#DCEFE3"/>
  <path d="M37 77c-8 0-14 7-15 24l-1 13h36v-9c0-8 4-13 11-15-7-7-14-13-31-13Z" fill="#DCEFE3"/>
  <path d="M123 77c8 0 14 7 15 24l1 13h-36v-9c0-8-4-13-11-15 7-7 14-13 31-13Z" fill="#DCEFE3"/>
  <path d="M80 120c-2 0-4-.7-5.7-2.1C55 102.4 45 91.4 45 78.8 45 67.8 53.1 60 63.3 60c6.2 0 12.2 3 16.7 8.8C84.5 63 90.5 60 96.7 60 106.9 60 115 67.8 115 78.8c0 12.6-10 23.6-29.3 39.1A8.9 8.9 0 0 1 80 120Z" fill="white"/>
  <text x="80" y="145" text-anchor="middle" font-family="Inter, Arial, sans-serif" font-size="26" font-weight="900" fill="white">IVG</text>
</svg>
