<svg width="160" height="160" viewBox="0 0 160 160" fill="none" xmlns="http://www.w3.org/2000/svg">
  <rect width="160" height="160" rx="0" fill="#3F9EB7"/>
  <circle cx="80" cy="48" r="15" fill="white"/>
  <circle cx="49" cy="58" r="11" fill="white"/>
  <circle cx="111" cy="58" r="11" fill="white"/>
  <path d="M37 74c-8 0-14 7-15 24l-1 13h36v-9c0-8 4-13 11-15-7-7-14-13-31-13Z" fill="white"/>
  <path d="M123 74c8 0 14 7 15 24l1 13h-36v-9c0-8-4-13-11-15 7-7 14-13 31-13Z" fill="white"/>
  <path d="M80 117c-2 0-4-.7-5.7-2.1C55 99.4 45 88.4 45 75.8 45 64.8 53.1 57 63.3 57c6.2 0 12.2 3 16.7 8.8C84.5 60 90.5 57 96.7 57 106.9 57 115 64.8 115 75.8c0 12.6-10 23.6-29.3 39.1A8.9 8.9 0 0 1 80 117Z" fill="white"/>
</svg>
